<?xml version="1.0" encoding="UTF-8"?> <svg xmlns="http://www.w3.org/2000/svg" width="647" height="142" viewBox="0 0 647 142" fill="none"><g clip-path="url(#clip0_1655_10222)"><path d="M87.8 62.1C87.8 65.7 84.8 68.7 81.2 68.7C77.6 68.7 74.6 65.7 74.6 62.1C74.6 58.5 77.6 55.5 81.2 55.5C84.8 55.5 87.8 58.5 87.8 62.1Z" fill="#009DFF"></path><path d="M86.6 82.6999C86.6 86.1999 83.8 88.9999 80.3 88.9999C76.8 88.9999 74 86.1999 74 82.6999C74 79.1999 76.8 76.3999 80.3 76.3999C83.8 76.3999 86.6 79.1999 86.6 82.6999Z" fill="#009DFF"></path><path d="M85.9 103.7C85.9 107.2 83.1001 110 79.6001 110C76.1001 110 73.3 107.2 73.3 103.7C73.3 100.2 76.1001 97.3999 79.6001 97.3999C83.1001 97.3999 85.9 100.2 85.9 103.7Z" fill="#009DFF"></path><path d="M84.9 123.1C84.9 126.4 82.2 129.1 78.9 129.1C75.6 129.1 72.9 126.4 72.9 123.1C72.9 119.8 75.6 117.1 78.9 117.1C82.3 117.2 84.9 119.8 84.9 123.1Z" fill="#009DFF"></path><path d="M118.9 44.6998C118.9 46.8998 117.1 48.5998 115 48.5998C112.9 48.5998 111.1 46.7998 111.1 44.6998C111.1 42.4998 112.9 40.7998 115 40.7998C117.1 40.7998 118.9 42.4998 118.9 44.6998Z" fill="#009DFF"></path><path d="M116.4 64.2002C116.4 66.4002 114.6 68.2002 112.4 68.2002C110.2 68.2002 108.4 66.4002 108.4 64.2002C108.4 62.0002 110.2 60.2002 112.4 60.2002C114.6 60.2002 116.4 62.0002 116.4 64.2002Z" fill="#009DFF"></path><path d="M113.5 84.3999C113.5 86.5999 111.7 88.3999 109.5 88.3999C107.3 88.3999 105.5 86.5999 105.5 84.3999C105.5 82.1999 107.3 80.3999 109.5 80.3999C111.7 80.3999 113.5 82.1999 113.5 84.3999Z" fill="#009DFF"></path><path d="M110.8 103.5C110.8 105.7 109 107.5 106.8 107.5C104.6 107.5 102.8 105.7 102.8 103.5C102.8 101.3 104.6 99.5 106.8 99.5C109 99.5 110.8 101.3 110.8 103.5Z" fill="#009DFF"></path><path d="M105.1 52.4001C105.1 55.3001 102.7 57.7001 99.8 57.7001C96.9 57.7001 94.5 55.3001 94.5 52.4001C94.5 49.5001 96.9 47.1001 99.8 47.1001C102.7 47.1001 105.1 49.5001 105.1 52.4001Z" fill="#009DFF"></path><path d="M104 72.0998C104 75.2998 101.4 77.8998 98.2 77.8998C95 77.8998 92.4 75.2998 92.4 72.0998C92.4 68.8998 95 66.2998 98.2 66.2998C101.4 66.2998 104 68.8998 104 72.0998Z" fill="#009DFF"></path><path d="M101.5 92.1998C101.5 94.8998 99.3 97.0998 96.6 97.0998C93.9 97.0998 91.7 94.8998 91.7 92.1998C91.7 89.4998 93.9 87.2998 96.6 87.2998C99.3 87.2998 101.5 89.4998 101.5 92.1998Z" fill="#009DFF"></path><path d="M99.7 111.4C99.7 113.9 97.7 115.9 95.2 115.9C92.7 115.9 90.7 113.9 90.7 111.4C90.7 108.9 92.7 106.9 95.2 106.9C97.7 106.9 99.7 109 99.7 111.4Z" fill="#009DFF"></path><path d="M88.7 42.6001C88.7 46.5001 85.6 49.6001 81.7 49.6001C77.8 49.6001 74.7 46.5001 74.7 42.6001C74.7 38.7001 77.8 35.6001 81.7 35.6001C85.6 35.6001 88.7 38.7001 88.7 42.6001Z" fill="#009DFF"></path><path d="M70.5 51.6C70.5 56.6 66.4001 60.7 61.4001 60.7C56.4001 60.7 52.3 56.6 52.3 51.6C52.3 46.6 56.4001 42.5 61.4001 42.5C66.4001 42.6 70.5 46.6 70.5 51.6Z" fill="#009DFF"></path><path d="M69.5 71.8998C69.5 76.3998 65.9001 79.9998 61.4001 79.9998C56.9001 79.9998 53.3 76.3998 53.3 71.8998C53.3 67.3998 56.9001 63.7998 61.4001 63.7998C65.9001 63.7998 69.5 67.3998 69.5 71.8998Z" fill="#009DFF"></path><path d="M69.0999 93.0999C69.0999 97.3999 65.6 100.8 61.4 100.8C57.1 100.8 53.7 97.2999 53.7 93.0999C53.7 88.7999 57.2 85.3999 61.4 85.3999C65.6 85.3999 69.0999 88.7999 69.0999 93.0999Z" fill="#009DFF"></path><path d="M68.5 114.5C68.5 118.4 65.3001 121.6 61.4001 121.6C57.5001 121.6 54.3 118.4 54.3 114.5C54.3 110.6 57.5001 107.4 61.4001 107.4C65.3001 107.4 68.5 110.6 68.5 114.5Z" fill="#009DFF"></path><path d="M67.8 134.9C67.8 138.4 64.9 141.3 61.4 141.3C57.9 141.3 55 138.4 55 134.9C55 131.4 57.9 128.5 61.4 128.5C64.9 128.5 67.8 131.4 67.8 134.9Z" fill="#009DFF"></path><path d="M122.6 24.7C122.6 27.3 120.5 29.4 117.9 29.4C115.3 29.4 113.2 27.3 113.2 24.7C113.2 22.1 115.3 20 117.9 20C120.5 20 122.6 22.1 122.6 24.7Z" fill="#009DFF"></path><path d="M107.2 32.7C107.2 36.1 104.4 38.9 101 38.9C97.6 38.9 94.8 36.1 94.8 32.7C94.8 29.3 97.6 26.5 101 26.5C104.4 26.5 107.2 29.3 107.2 32.7Z" fill="#009DFF"></path><path d="M35 62.1C35 65.7 38 68.7 41.6 68.7C45.2 68.7 48.2 65.7 48.2 62.1C48.2 58.5 45.2 55.5 41.6 55.5C38 55.5 35 58.5 35 62.1Z" fill="#009DFF"></path><path d="M36.1001 82.6999C36.1001 86.1999 38.9001 88.9999 42.4001 88.9999C45.9001 88.9999 48.7001 86.1999 48.7001 82.6999C48.7001 79.1999 45.9001 76.3999 42.4001 76.3999C38.9001 76.3999 36.1001 79.1999 36.1001 82.6999Z" fill="#009DFF"></path><path d="M36.8 103.7C36.8 107.2 39.6 110 43.1 110C46.6 110 49.4001 107.2 49.4001 103.7C49.4001 100.2 46.6 97.3999 43.1 97.3999C39.6 97.3999 36.8 100.2 36.8 103.7Z" fill="#009DFF"></path><path d="M37.8 123.1C37.8 126.4 40.5 129.1 43.8 129.1C47.1 129.1 49.8 126.4 49.8 123.1C49.8 119.8 47.1 117.1 43.8 117.1C40.5 117.2 37.8 119.8 37.8 123.1Z" fill="#009DFF"></path><path d="M3.80005 44.6999C3.80005 46.8999 5.60004 48.5999 7.70004 48.5999C9.90004 48.5999 11.6 46.7999 11.6 44.6999C11.6 42.4999 9.80004 40.7999 7.70004 40.7999C5.60004 40.6999 3.80005 42.4999 3.80005 44.6999Z" fill="#009DFF"></path><path d="M6.3999 64.2002C6.3999 66.4002 8.1999 68.2002 10.3999 68.2002C12.5999 68.2002 14.3999 66.4002 14.3999 64.2002C14.3999 62.0002 12.5999 60.2002 10.3999 60.2002C8.1999 60.2002 6.3999 62.0002 6.3999 64.2002Z" fill="#009DFF"></path><path d="M9.30005 84.3999C9.30005 86.5999 11.1 88.3999 13.3 88.3999C15.5 88.3999 17.3 86.5999 17.3 84.3999C17.3 82.1999 15.5 80.3999 13.3 80.3999C11.1 80.3999 9.30005 82.1999 9.30005 84.3999Z" fill="#009DFF"></path><path d="M11.8999 103.5C11.8999 105.7 13.6999 107.5 15.8999 107.5C18.0999 107.5 19.8999 105.7 19.8999 103.5C19.8999 101.3 18.0999 99.5 15.8999 99.5C13.6999 99.5 11.8999 101.3 11.8999 103.5Z" fill="#009DFF"></path><path d="M34.1001 42.6001C34.1001 46.5001 37.2001 49.6001 41.1001 49.6001C45.0001 49.6001 48.1001 46.5001 48.1001 42.6001C48.1001 38.7001 45.0001 35.6001 41.1001 35.6001C37.2001 35.6001 34.1001 38.7001 34.1001 42.6001Z" fill="#009DFF"></path><path d="M0.199951 24.7C0.199951 27.3 2.29996 29.4 4.89996 29.4C7.49996 29.4 9.59995 27.3 9.59995 24.7C9.59995 22.1 7.49996 20 4.89996 20C2.29996 20 0.199951 22.1 0.199951 24.7Z" fill="#009DFF"></path><path d="M15.6001 32.7C15.6001 36.1 18.4001 38.9 21.8001 38.9C25.2001 38.9 28.0001 36.1 28.0001 32.7C28.0001 29.3 25.2001 26.5 21.8001 26.5C18.4001 26.5 15.6001 29.3 15.6001 32.7Z" fill="#009DFF"></path><path d="M17.7 52.4001C17.7 55.3001 20.1 57.7001 23 57.7001C25.9 57.7001 28.2999 55.3001 28.2999 52.4001C28.2999 49.5001 25.9 47.1001 23 47.1001C20.1 47.1001 17.7 49.5001 17.7 52.4001Z" fill="#009DFF"></path><path d="M18.8 72.0998C18.8 75.2998 21.4 77.8998 24.6 77.8998C27.8001 77.8998 30.4 75.2998 30.4 72.0998C30.4 68.8998 27.8001 66.2998 24.6 66.2998C21.4 66.2998 18.8 68.8998 18.8 72.0998Z" fill="#009DFF"></path><path d="M21.3 92.1998C21.3 94.8998 23.5001 97.0998 26.2001 97.0998C28.9001 97.0998 31.1 94.8998 31.1 92.1998C31.1 89.4998 28.9001 87.2998 26.2001 87.2998C23.5001 87.2998 21.3 89.4998 21.3 92.1998Z" fill="#009DFF"></path><path d="M23 111.4C23 113.9 25 115.9 27.5 115.9C30 115.9 32 113.9 32 111.4C32 108.9 30 106.9 27.5 106.9C25.1 106.9 23 109 23 111.4Z" fill="#009DFF"></path><path d="M84.7 23.5999C84.7 26.4999 82.4 28.7999 79.5 28.7999C76.6 28.7999 74.3 26.4999 74.3 23.5999C74.3 20.6999 76.6 18.3999 79.5 18.3999C82.4 18.3999 84.7 20.6999 84.7 23.5999Z" fill="#009DFF"></path><path d="M66.6 15.5998C66.6 18.4998 64.2 20.8998 61.3 20.8998C58.4 20.8998 56 18.4998 56 15.5998C56 12.6998 58.4 10.2998 61.3 10.2998C64.2 10.2998 66.6 12.6998 66.6 15.5998Z" fill="#009DFF"></path><path d="M65.1 4.10009C65.1 6.20009 63.4 7.90009 61.3 7.90009C59.2 7.90009 57.5 6.20009 57.5 4.10009C57.5 2.00009 59.2 0.300093 61.3 0.300093C63.4 0.200093 65.1 1.90009 65.1 4.10009Z" fill="#009DFF"></path><path d="M67.6999 32.6002C67.6999 36.1002 64.7999 39.0002 61.2999 39.0002C57.7999 39.0002 54.8999 36.1002 54.8999 32.6002C54.8999 29.1002 57.7999 26.2002 61.2999 26.2002C64.7999 26.2002 67.6999 29.0002 67.6999 32.6002Z" fill="#009DFF"></path><path d="M99.2 16.5999C99.2 18.8999 97.3 20.7999 95 20.7999C92.7 20.7999 90.8 18.8999 90.8 16.5999C90.8 14.2999 92.7 12.3999 95 12.3999C97.3 12.3999 99.2 14.2999 99.2 16.5999Z" fill="#009DFF"></path><path d="M79.1001 9.5001C79.1001 11.4001 77.6 12.9001 75.7 12.9001C73.8 12.9001 72.3 11.4001 72.3 9.5001C72.3 7.6001 73.8 6.1001 75.7 6.1001C77.6 6.1001 79.1001 7.6001 79.1001 9.5001Z" fill="#009DFF"></path><path d="M37.8 23.5999C37.8 26.4999 40.1 28.7999 43 28.7999C45.9 28.7999 48.2001 26.4999 48.2001 23.5999C48.2001 20.6999 45.9 18.3999 43 18.3999C40.1 18.3999 37.8 20.6999 37.8 23.5999Z" fill="#009DFF"></path><path d="M23.3 16.5999C23.3 18.8999 25.2 20.7999 27.5 20.7999C29.8 20.7999 31.7001 18.8999 31.7001 16.5999C31.7001 14.2999 29.8 12.3999 27.5 12.3999C25.2 12.3999 23.3 14.2999 23.3 16.5999Z" fill="#009DFF"></path><path d="M43.3999 9.5001C43.3999 11.4001 44.8999 12.9001 46.7999 12.9001C48.6999 12.9001 50.1999 11.4001 50.1999 9.5001C50.1999 7.6001 48.6999 6.1001 46.7999 6.1001C44.8999 6.1001 43.3999 7.6001 43.3999 9.5001Z" fill="#009DFF"></path><path fill-rule="evenodd" clip-rule="evenodd" d="M210 99.9C226.1 99.9 236.6 89.1 236.6 74.1V73.9C236.6 58.9 226.1 47.9 210 47.9H194.9V100H210V99.9ZM181.5 42.3C181.5 38.5 184.5 35.5 188.3 35.5H210C234.1 35.5 250.7 52 250.7 73.6V73.8C250.7 95.3 234.1 112.1 210 112.1H188.2C184.4 112.1 181.4 109.1 181.4 105.3L181.5 42.3ZM263.1 57.0999C263.1 54.1999 265.4 51.8999 268.4 51.8999C271.3 51.8999 273.6 54.1999 273.6 57.0999V107.4C273.6 110.3 271.3 112.6 268.4 112.6C265.4 112.6 263.1 110.3 263.1 107.4V57.0999ZM293.1 51.8999C290.1 51.8999 287.8 54.1999 287.8 57.0999V106.9C287.8 109.9 290.1 112.2 293.1 112.2H325.4C328.1 112.2 330.2 110.1 330.2 107.4C330.2 104.7 328 102.6 325.4 102.6H298.3V57.0999C298.3 54.1999 296 51.8999 293.1 51.8999ZM339.6 57.0999C339.6 54.1999 341.9 51.8999 344.9 51.8999C347.8 51.8999 350.1 54.1999 350.1 57.0999V107.4C350.1 110.3 347.8 112.6 344.9 112.6C341.9 112.6 339.6 110.3 339.6 107.4V57.0999ZM364.1 48.0001H382.7V106C382.7 109.7 385.8 112.7 389.5 112.7C393.2 112.7 396.3 109.7 396.3 106V48.0001H415C418.4 48.0001 421.1 45.2001 421.1 41.8001C421.1 38.4001 418.4 35.6001 415 35.6001H364.1C360.6 35.6001 357.9 38.4001 357.9 41.8001C357.9 45.2001 360.6 48.0001 364.1 48.0001ZM453.1 81.8998C460.6 81.8998 465.4 77.9998 465.4 71.8998V71.6998C465.4 65.2998 460.8 61.7998 453 61.7998H437.7V81.8998H453.1ZM427.2 57.5998C427.2 54.5998 429.5 52.2998 432.5 52.2998H453.9C461.4 52.2998 467.3 54.4998 471.2 58.2998C474.4 61.4998 476.2 65.9998 476.2 71.1998V71.3998C476.2 80.9998 470.6 86.7998 462.6 89.2998L474.1 103.7C475.1 105 475.8 106.1 475.8 107.7C475.8 110.6 473.3 112.6 470.8 112.6C468.4 112.6 466.9 111.5 465.7 109.9L451.2 91.3998H437.9V107.5C437.9 110.4 435.6 112.7 432.7 112.7C429.7 112.7 427.4 110.4 427.4 107.5V57.5998H427.2ZM486.2 57.0999V86.6999C486.2 104.1 496.2 113 511.6 113C527.2 113 537.3 104.1 537.3 86.1999V57.0999C537.3 54.1999 535 51.8999 532.1 51.8999C529.1 51.8999 526.8 54.1999 526.8 57.0999V86.6999C526.8 97.6999 521.1 103.3 511.8 103.3C502.4 103.3 496.7 97.3999 496.7 86.2999V57.0999C496.7 54.1999 494.4 51.8999 491.5 51.8999C488.5 51.8999 486.2 54.1999 486.2 57.0999ZM548.6 105.4C547.4 104.5 546.5 103.1 546.5 101.4C546.5 98.6998 548.7 96.4998 551.5 96.4998C553 96.4998 553.9 96.8998 554.6 97.3998C559.6 101.3 564.9 103.6 571.4 103.6C577.9 103.6 582 100.5 582 96.0998V95.8998C582 91.5998 579.6 89.2998 568.5 86.7998C555.8 83.6998 548.6 79.9998 548.6 68.8998V68.6998C548.6 58.3998 557.1 51.2998 569 51.2998C576.5 51.2998 582.6 53.2998 588 56.8998C589.2 57.5998 590.3 58.9998 590.3 61.0998C590.3 63.7998 588.1 65.9998 585.3 65.9998C584.3 65.9998 583.4 65.6998 582.6 65.1998C578 62.1998 573.5 60.6998 568.8 60.6998C562.6 60.6998 559.1 63.8998 559.1 67.7998V67.9998C559.1 72.5998 561.8 74.6998 573.4 77.3998C586.1 80.4998 592.5 84.9998 592.5 94.8998V95.0998C592.5 106.3 583.7 113 571.1 113C562.9 113 555.2 110.4 548.6 105.4ZM601.9 62.0002H616.4V107.3C616.4 110.2 618.8 112.5 621.7 112.5C624.6 112.5 627 110.2 627 107.3V62.0002H641.6C644.3 62.0002 646.4 59.7002 646.4 57.1002C646.4 54.4002 644.3 52.2002 641.6 52.2002H601.9C599.1 52.2002 597 54.4002 597 57.1002C597 59.8002 599.2 62.0002 601.9 62.0002Z" fill="#00183C"></path></g><defs><clipPath id="clip0_1655_10222"><rect width="647" height="142" fill="white"></rect></clipPath></defs></svg> 